<svg width="600" height="200" viewBox="0 0 600 200" fill="none" xmlns="http://www.w3.org/2000/svg">
<g clip-path="url(#clip0_19_2)">
<rect width="600" height="200" fill="white"/>
<rect width="600" height="200" transform="matrix(-1 0 0 1 600 0)" fill="url(#paint0_linear_19_2)"/>
<rect width="600" height="200" transform="matrix(-1 0 0 1 600 0)" fill="url(#paint1_linear_19_2)"/>
<path d="M91.4437 185.713V260.994L96.525 256.869C147.244 215.881 211.444 164 209.137 99.0313C208.35 76.3063 196.912 54.5188 178.387 41.6938C143.7 17.5062 100.875 39.3313 77.7375 66.8563C54.6187 39.3313 11.7937 17.6187 -22.9125 41.6938C-41.4375 54.5188 -52.8563 76.3063 -53.6625 99.0313C-55.7625 163.25 6.52496 213.988 56.7187 254.881L63.2812 260.225V177.425L61.575 177.181C58.0312 176.619 54.0749 175.869 50.3999 174.744C46.6044 173.709 43.0495 171.938 39.9375 169.531C37.028 166.874 34.6706 163.669 33 160.1C31.2885 156.684 29.8405 153.143 28.6687 149.506C27.3622 145.648 26.236 141.732 25.2937 137.769L25.125 137L25.0687 136.775V136.681C24.8426 135.63 24.8595 134.54 25.1181 133.496C25.3767 132.452 25.8701 131.481 26.5609 130.656C27.2516 129.832 28.1215 129.176 29.1041 128.738C30.0867 128.301 31.1562 128.093 32.2312 128.131H32.5312L33.3562 128.188C37.4113 128.425 41.4531 128.85 45.4687 129.463C48.9937 130.006 52.9499 130.775 56.6249 131.9C60.1499 132.988 64.0875 134.581 67.0875 137.113C70.0875 139.625 72.3375 143.263 74.025 146.544C75.2812 149.019 76.3875 151.663 77.325 154.231H77.3625C78.9562 151.288 81.0187 148.231 83.6437 146.019C86.7628 143.617 90.3243 141.852 94.125 140.825C97.7812 139.7 101.737 138.931 105.281 138.388C109.296 137.769 113.338 137.337 117.394 137.094L118.2 137.056H118.5C119.589 137.014 120.672 137.225 121.666 137.672C122.66 138.12 123.536 138.791 124.226 139.634C124.917 140.477 125.402 141.469 125.645 142.531C125.888 143.593 125.881 144.697 125.625 145.756L125.606 145.906L125.419 146.713C124.482 150.669 123.362 154.579 122.062 158.431C120.885 162.068 119.43 165.61 117.712 169.025C116.049 172.599 113.698 175.81 110.794 178.475C107.794 180.988 103.856 182.6 100.331 183.669C97.4133 184.536 94.4453 185.225 91.4437 185.731" fill="black" fill-opacity="0.15"/>
<path d="M93.9533 183.046V272.379L99.983 267.484C160.169 218.846 236.353 157.28 233.616 80.1838C232.682 53.2168 219.11 27.3623 197.127 12.1433C155.964 -16.5592 105.145 9.33976 77.6885 42.0028C50.2543 9.33976 -0.564746 -16.4257 -41.7495 12.1433C-63.7325 27.3623 -77.2827 53.2168 -78.2395 80.1838C-80.7315 156.39 -6.81699 216.599 52.7463 265.126L60.5338 271.467V173.211L58.509 172.922C54.3038 172.254 49.609 171.364 45.248 170.029C40.744 168.801 36.5254 166.7 32.8325 163.844C29.3799 160.69 26.5825 156.887 24.6 152.652C22.5691 148.599 20.8508 144.396 19.4603 140.081C17.9099 135.503 16.5734 130.855 15.4553 126.152L15.255 125.24L15.1883 124.973V124.862C14.92 123.614 14.94 122.321 15.2469 121.082C15.5537 119.843 16.1393 118.691 16.959 117.712C17.7787 116.734 18.8109 115.955 19.9769 115.436C21.143 114.917 22.4121 114.67 23.6878 114.716H24.0437L25.0228 114.783C29.8348 115.064 34.6311 115.569 39.3963 116.296C43.5793 116.941 48.274 117.853 52.635 119.188C56.818 120.479 61.4905 122.37 65.0505 125.374C68.6105 128.355 71.2805 132.672 73.283 136.565C74.7738 139.502 76.0865 142.64 77.199 145.688H77.2435C79.1348 142.195 81.5823 138.568 84.6973 135.942C88.3986 133.092 92.6248 130.997 97.135 129.779C101.474 128.444 106.169 127.532 110.374 126.887C115.139 126.153 119.935 125.64 124.747 125.351L125.704 125.307H126.06C127.352 125.257 128.638 125.507 129.817 126.038C130.996 126.569 132.036 127.365 132.855 128.366C133.675 129.366 134.251 130.543 134.539 131.803C134.827 133.064 134.819 134.374 134.515 135.631L134.493 135.809L134.27 136.766C133.159 141.46 131.83 146.101 130.288 150.672C128.89 154.988 127.164 159.19 125.126 163.243C123.152 167.484 120.362 171.295 116.915 174.457C113.355 177.439 108.683 179.352 104.5 180.62C101.037 181.649 97.5152 182.467 93.9533 183.068" fill="black" fill-opacity="0.15"/>
<path d="M495.021 235.071V183.06C497.356 182.804 500.483 182.387 503.865 181.782C507.646 181.125 511.378 180.214 515.036 179.055C518.572 177.896 522.645 176.192 525.798 173.542C528.951 170.892 531.337 167.186 533.1 163.914C534.932 160.488 536.483 156.756 537.719 153.399C540.019 147.136 541.442 141.632 541.647 140.805C541.988 139.497 542.013 138.127 541.72 136.808C541.427 135.489 540.825 134.258 539.962 133.218C539.1 132.177 538.002 131.357 536.76 130.824C535.518 130.291 534.167 130.062 532.819 130.154H532.785L532.726 130.163L532.495 130.18L531.686 130.248C531.004 130.307 530.024 130.393 528.831 130.529C526.463 130.785 523.208 131.211 519.663 131.841C515.885 132.498 512.156 133.409 508.501 134.568C504.965 135.727 500.892 137.431 497.73 140.089C496.759 140.913 495.856 141.816 495.021 142.799V123.414C497.356 123.158 500.483 122.741 503.865 122.136C507.646 121.48 511.378 120.569 515.036 119.409C518.572 118.25 522.645 116.546 525.798 113.896C528.951 111.246 531.337 107.54 533.1 104.268C534.932 100.842 536.483 97.1102 537.719 93.753C540.019 87.4902 541.442 81.9857 541.647 81.1592C541.988 79.8515 542.013 78.4815 541.72 77.1622C541.427 75.8429 540.825 74.6122 539.962 73.5717C539.1 72.5312 538.002 71.7108 536.76 71.1781C535.518 70.6454 534.167 70.4158 532.819 70.5082H532.785L532.726 70.5167L532.495 70.5337L531.686 70.6019C531.004 70.6615 530.024 70.7467 528.831 70.8831C526.463 71.1387 523.208 71.5647 519.663 72.1953C515.885 72.852 512.156 73.7629 508.501 74.9219C504.965 76.0808 500.892 77.7849 497.73 80.4349C494.578 83.0849 492.192 86.7915 490.437 90.0635C489.688 91.47 488.989 92.9024 488.34 94.358C487.394 91.0063 486.32 87.6921 485.12 84.4227C483.821 80.821 482.281 77.311 480.51 73.9165C478.755 70.6445 476.369 66.9464 473.216 64.2965C470.055 61.655 465.982 59.9423 462.446 58.775C458.791 57.6159 455.061 56.705 451.283 56.0483C447.035 55.2945 442.752 54.7429 438.451 54.3952L438.221 54.3782H438.127C436.779 54.2858 435.428 54.5155 434.186 55.0481C432.944 55.5808 431.847 56.4013 430.984 57.4418C430.122 58.4823 429.519 59.713 429.226 61.0323C428.934 62.3515 428.959 63.7216 429.3 65.0293C429.504 65.8473 430.919 71.3517 433.228 77.6145C434.463 80.9632 436.014 84.7039 437.846 88.1292C439.601 91.4012 441.987 95.1078 445.14 97.7578C448.301 100.399 452.374 102.112 455.91 103.271C459.565 104.43 463.295 105.341 467.072 105.997C470.686 106.641 474.325 107.139 477.979 107.489V129.37C476.653 127.347 475.046 125.522 473.207 123.951C470.055 121.292 465.982 119.588 462.446 118.429C458.791 117.27 455.061 116.359 451.283 115.703C447.301 114.993 443.29 114.462 439.26 114.109L438.451 114.041L438.221 114.024H438.127C436.779 113.932 435.428 114.161 434.186 114.694C432.944 115.227 431.847 116.047 430.984 117.088C430.122 118.128 429.519 119.359 429.226 120.678C428.934 121.997 428.959 123.367 429.3 124.675C429.504 125.493 430.919 130.998 433.228 137.269C434.463 140.618 436.014 144.341 437.846 147.775C439.601 151.047 441.987 154.754 445.14 157.404C448.301 160.045 452.374 161.758 455.91 162.917C459.608 164.135 463.562 165.013 467.072 165.643C470.686 166.287 474.325 166.784 477.979 167.134V234.977C473.577 231.362 469.163 227.761 464.738 224.173L464.695 224.139C412.624 181.833 348.028 129.327 350.218 62.882C351.036 39.3645 362.897 16.8269 382.111 3.55144C418.086 -21.3464 462.514 -1.59515 486.491 26.8985C510.478 -1.59515 554.914 -21.4913 590.88 3.55144C610.095 16.8269 621.956 39.373 622.774 62.882C625.16 130.111 558.578 183.793 505.979 226.209C502.241 229.22 498.588 232.174 495.021 235.071Z" fill="white" fill-opacity="0.15"/>
<path d="M497.562 261.789V194.264C500.594 193.932 504.654 193.39 509.045 192.604C513.954 191.752 518.799 190.569 523.548 189.064C528.139 187.56 533.427 185.347 537.52 181.907C541.613 178.466 544.711 173.654 547.001 169.406C549.379 164.959 551.393 160.114 552.997 155.755C555.984 147.624 557.831 140.478 558.096 139.405C558.539 137.707 558.572 135.928 558.191 134.215C557.811 132.503 557.029 130.905 555.909 129.554C554.79 128.203 553.365 127.138 551.752 126.446C550.14 125.755 548.386 125.456 546.636 125.576H546.591L546.514 125.588L546.215 125.61L545.164 125.698C544.279 125.776 543.007 125.886 541.458 126.063C538.383 126.395 534.157 126.948 529.555 127.767C524.65 128.619 519.809 129.802 515.063 131.307C510.472 132.811 505.185 135.024 501.08 138.475C499.819 139.545 498.647 140.717 497.562 141.993V116.826C500.594 116.494 504.654 115.952 509.045 115.167C513.954 114.315 518.799 113.132 523.548 111.627C528.139 110.122 533.427 107.91 537.52 104.469C541.613 101.029 544.711 96.2166 547.001 91.9686C549.379 87.5214 551.393 82.6761 552.997 78.3174C555.984 70.1865 557.831 63.0401 558.096 61.9671C558.539 60.2693 558.572 58.4906 558.191 56.7778C557.811 55.065 557.029 53.4672 555.909 52.1163C554.79 50.7655 553.365 49.7003 551.752 49.0087C550.14 48.3171 548.386 48.019 546.636 48.1389H546.591L546.514 48.15L546.215 48.1721L545.164 48.2606C544.279 48.3381 543.007 48.4487 541.458 48.6257C538.383 48.9576 534.157 49.5107 529.555 50.3293C524.65 51.1819 519.809 52.3646 515.063 53.8693C510.472 55.3738 505.185 57.5863 501.08 61.0268C496.987 64.4672 493.89 69.2794 491.611 73.5274C490.639 75.3535 489.731 77.2131 488.889 79.1029C487.661 74.7514 486.266 70.4486 484.708 66.204C483.022 61.528 481.022 56.971 478.723 52.5639C476.444 48.3159 473.347 43.5148 469.254 40.0744C465.149 36.645 459.861 34.4214 455.271 32.9059C450.525 31.4011 445.683 30.2184 440.779 29.3659C435.262 28.3872 429.703 27.671 424.119 27.2197L423.82 27.1976H423.698C421.948 27.0777 420.194 27.3758 418.581 28.0674C416.969 28.759 415.544 29.8242 414.425 31.175C413.305 32.5259 412.523 34.1237 412.142 35.8365C411.762 37.5493 411.795 39.328 412.237 41.0257C412.503 42.0877 414.339 49.2341 417.337 57.3651C418.941 61.7126 420.955 66.5691 423.333 71.0162C425.612 75.2642 428.709 80.0764 432.803 83.5168C436.907 86.9462 442.195 89.1698 446.786 90.6743C451.531 92.179 456.373 93.3617 461.277 94.2143C465.969 95.0499 470.693 95.6958 475.437 96.1502V124.559C473.716 121.932 471.63 119.563 469.242 117.523C465.149 114.071 459.861 111.859 455.271 110.354C450.525 108.85 445.683 107.667 440.779 106.814C435.609 105.894 430.401 105.203 425.169 104.746L424.119 104.657L423.82 104.635H423.698C421.948 104.515 420.194 104.813 418.581 105.505C416.969 106.196 415.544 107.262 414.425 108.613C413.305 109.963 412.523 111.561 412.142 113.274C411.762 114.987 411.795 116.766 412.237 118.463C412.503 119.525 414.339 126.672 417.337 134.814C418.941 139.161 420.955 143.996 423.333 148.454C425.612 152.702 428.709 157.514 432.803 160.954C436.907 164.384 442.195 166.607 446.786 168.112C451.587 169.694 456.72 170.833 461.277 171.652C465.969 172.487 470.693 173.133 475.437 173.588V261.667C469.722 256.974 463.991 252.298 458.246 247.64L458.191 247.596C390.588 192.671 306.723 124.503 309.566 38.238C310.628 7.7055 326.027 -21.5548 350.973 -38.7902C397.679 -71.1148 455.359 -45.4719 486.489 -8.47894C517.63 -45.4719 575.321 -71.3029 622.016 -38.7902C646.962 -21.5548 662.361 7.71656 663.423 38.238C666.52 125.521 580.078 195.215 511.789 250.284C506.936 254.193 502.194 258.028 497.562 261.789Z" fill="white" fill-opacity="0.15"/>
</g>
<defs>
<linearGradient id="paint0_linear_19_2" x1="-7.7486e-06" y1="200" x2="288" y2="-216" gradientUnits="userSpaceOnUse">
<stop stop-color="#446732"/>
<stop offset="1" stop-color="#C5EFAB"/>
</linearGradient>
<linearGradient id="paint1_linear_19_2" x1="300" y1="200" x2="300" y2="0.00026226" gradientUnits="userSpaceOnUse">
<stop stop-opacity="0.15"/>
<stop offset="1" stop-color="white" stop-opacity="0.15"/>
</linearGradient>
<clipPath id="clip0_19_2">
<rect width="600" height="200" fill="white"/>
</clipPath>
</defs>
</svg>
