<svg width="600" height="200" viewBox="0 0 600 200" fill="none" xmlns="http://www.w3.org/2000/svg">
<g clip-path="url(#clip0_1_248)">
<rect width="600" height="200" fill="white"/>
<rect width="300" height="200" fill="url(#paint0_linear_1_248)"/>
<rect width="300" height="200" transform="matrix(-1 0 0 1 600 0)" fill="url(#paint1_linear_1_248)"/>
<rect x="610.787" y="3.28522" width="172.608" height="413.137" transform="rotate(60 610.787 3.28522)" fill="url(#paint2_linear_1_248)" fill-opacity="0.2"/>
<circle cx="-38" cy="206" r="170" fill="white" fill-opacity="0.1"/>
<circle cx="-38" cy="206" r="133" fill="white" fill-opacity="0.05"/>
<circle cx="-38" cy="206" r="71" fill="white" fill-opacity="0.05"/>
<circle cx="520" cy="133" r="159" fill="white" fill-opacity="0.02"/>
<circle cx="626.5" cy="57.5" r="93.5" fill="white" fill-opacity="0.05"/>
<circle cx="9" cy="7" r="2.5" fill="white" fill-opacity="0.5"/>
<circle cx="25" cy="7" r="2.5" fill="white" fill-opacity="0.5"/>
<circle cx="41" cy="7" r="2.5" fill="white" fill-opacity="0.5"/>
<circle cx="57" cy="7" r="2.5" fill="white" fill-opacity="0.5"/>
<circle cx="73" cy="7" r="2.5" fill="white" fill-opacity="0.5"/>
<circle cx="9" cy="23" r="2.5" fill="white" fill-opacity="0.5"/>
<circle cx="25" cy="23" r="2.5" fill="white" fill-opacity="0.5"/>
<circle cx="41" cy="23" r="2.5" fill="white" fill-opacity="0.5"/>
<circle cx="57" cy="23" r="2.5" fill="white" fill-opacity="0.5"/>
<circle cx="73" cy="23" r="2.5" fill="white" fill-opacity="0.5"/>
<circle cx="9" cy="39" r="2.5" fill="white" fill-opacity="0.5"/>
<circle cx="25" cy="39" r="2.5" fill="white" fill-opacity="0.5"/>
<circle cx="41" cy="39" r="2.5" fill="white" fill-opacity="0.5"/>
<circle cx="57" cy="39" r="2.5" fill="white" fill-opacity="0.5"/>
<circle cx="73" cy="39" r="2.5" fill="white" fill-opacity="0.5"/>
<circle cx="9" cy="55" r="2.5" fill="white" fill-opacity="0.5"/>
<circle cx="25" cy="55" r="2.5" fill="white" fill-opacity="0.5"/>
<circle cx="41" cy="55" r="2.5" fill="white" fill-opacity="0.5"/>
<circle cx="57" cy="55" r="2.5" fill="white" fill-opacity="0.5"/>
<circle cx="73" cy="55" r="2.5" fill="white" fill-opacity="0.5"/>
<circle cx="574" cy="83" r="2.5" fill="white" fill-opacity="0.5"/>
<circle cx="590" cy="83" r="2.5" fill="white" fill-opacity="0.5"/>
<circle cx="574" cy="99" r="2.5" fill="white" fill-opacity="0.5"/>
<circle cx="590" cy="99" r="2.5" fill="white" fill-opacity="0.5"/>
<circle cx="574" cy="115" r="2.5" fill="white" fill-opacity="0.5"/>
<circle cx="590" cy="115" r="2.5" fill="white" fill-opacity="0.5"/>
<circle cx="574" cy="131" r="2.5" fill="white" fill-opacity="0.5"/>
<circle cx="590" cy="131" r="2.5" fill="white" fill-opacity="0.5"/>
<circle cx="574" cy="147" r="2.5" fill="white" fill-opacity="0.5"/>
<circle cx="590" cy="147" r="2.5" fill="white" fill-opacity="0.5"/>
<circle cx="574" cy="163" r="2.5" fill="white" fill-opacity="0.5"/>
<circle cx="590" cy="163" r="2.5" fill="white" fill-opacity="0.5"/>
<path d="M336 208.64L446.227 145" stroke="white" stroke-opacity="0.25" stroke-width="3" stroke-linecap="round"/>
<path d="M317 240.64L427.227 177" stroke="white" stroke-opacity="0.25" stroke-width="3" stroke-linecap="round"/>
<path d="M365 232.64L475.227 169" stroke="white" stroke-opacity="0.25" stroke-width="3" stroke-linecap="round"/>
<path d="M247 238.64L357.227 175" stroke="white" stroke-opacity="0.25" stroke-width="3" stroke-linecap="round"/>
<path d="M245 28.6396L355.227 -35" stroke="white" stroke-opacity="0.25" stroke-width="3" stroke-linecap="round"/>
<path d="M208 35.6396L318.227 -28" stroke="white" stroke-opacity="0.25" stroke-width="3" stroke-linecap="round"/>
<path d="M199 21.6396L309.227 -42" stroke="white" stroke-opacity="0.25" stroke-width="3" stroke-linecap="round"/>
</g>
<defs>
<linearGradient id="paint0_linear_1_248" x1="0" y1="100" x2="300" y2="100" gradientUnits="userSpaceOnUse">
<stop stop-color="#005DBA"/>
<stop offset="0.7" stop-color="#4953A3"/>
</linearGradient>
<linearGradient id="paint1_linear_1_248" x1="0" y1="100" x2="300" y2="100" gradientUnits="userSpaceOnUse">
<stop stop-color="#005DBA"/>
<stop offset="0.7" stop-color="#4953A3"/>
</linearGradient>
<linearGradient id="paint2_linear_1_248" x1="610.787" y1="209.854" x2="783.395" y2="209.854" gradientUnits="userSpaceOnUse">
<stop stop-color="white" stop-opacity="0.25"/>
<stop offset="1"/>
</linearGradient>
<clipPath id="clip0_1_248">
<rect width="600" height="200" fill="white"/>
</clipPath>
</defs>
</svg>
