<svg width="600" height="200" viewBox="0 0 600 200" fill="none" xmlns="http://www.w3.org/2000/svg">
<g clip-path="url(#clip0_1_160)">
<rect width="600" height="200" fill="white"/>
<rect width="300" height="200" fill="url(#paint0_linear_1_160)"/>
<rect width="300" height="200" transform="matrix(-1 0 0 1 600 0)" fill="url(#paint1_linear_1_160)"/>
<rect x="589.305" y="-35.5914" width="215.582" height="471.47" transform="rotate(60 589.305 -35.5914)" fill="url(#paint2_linear_1_160)" fill-opacity="0.2"/>
<circle cx="-79" cy="43" r="160" fill="white" fill-opacity="0.05"/>
<circle cx="-79" cy="43" r="195" fill="white" fill-opacity="0.05"/>
<circle cx="579" cy="142" r="110" fill="white" fill-opacity="0.05"/>
<circle cx="9" cy="92" r="2.5" fill="white" fill-opacity="0.5"/>
<circle cx="25" cy="92" r="2.5" fill="white" fill-opacity="0.5"/>
<circle cx="41" cy="92" r="2.5" fill="white" fill-opacity="0.5"/>
<circle cx="57" cy="92" r="2.5" fill="white" fill-opacity="0.5"/>
<circle cx="73" cy="92" r="2.5" fill="white" fill-opacity="0.5"/>
<circle cx="9" cy="108" r="2.5" fill="white" fill-opacity="0.5"/>
<circle cx="25" cy="108" r="2.5" fill="white" fill-opacity="0.5"/>
<circle cx="41" cy="108" r="2.5" fill="white" fill-opacity="0.5"/>
<circle cx="57" cy="108" r="2.5" fill="white" fill-opacity="0.5"/>
<circle cx="73" cy="108" r="2.5" fill="white" fill-opacity="0.5"/>
<circle cx="9" cy="124" r="2.5" fill="white" fill-opacity="0.5"/>
<circle cx="25" cy="124" r="2.5" fill="white" fill-opacity="0.5"/>
<circle cx="41" cy="124" r="2.5" fill="white" fill-opacity="0.5"/>
<circle cx="57" cy="124" r="2.5" fill="white" fill-opacity="0.5"/>
<circle cx="73" cy="124" r="2.5" fill="white" fill-opacity="0.5"/>
<circle cx="9" cy="140" r="2.5" fill="white" fill-opacity="0.5"/>
<circle cx="25" cy="140" r="2.5" fill="white" fill-opacity="0.5"/>
<circle cx="41" cy="140" r="2.5" fill="white" fill-opacity="0.5"/>
<circle cx="57" cy="140" r="2.5" fill="white" fill-opacity="0.5"/>
<circle cx="73" cy="140" r="2.5" fill="white" fill-opacity="0.5"/>
<circle cx="9" cy="156" r="2.5" fill="white" fill-opacity="0.5"/>
<circle cx="25" cy="156" r="2.5" fill="white" fill-opacity="0.5"/>
<circle cx="41" cy="156" r="2.5" fill="white" fill-opacity="0.5"/>
<circle cx="57" cy="156" r="2.5" fill="white" fill-opacity="0.5"/>
<circle cx="73" cy="156" r="2.5" fill="white" fill-opacity="0.5"/>
<circle cx="9" cy="172" r="2.5" fill="white" fill-opacity="0.5"/>
<circle cx="25" cy="172" r="2.5" fill="white" fill-opacity="0.5"/>
<circle cx="41" cy="172" r="2.5" fill="white" fill-opacity="0.5"/>
<circle cx="57" cy="172" r="2.5" fill="white" fill-opacity="0.5"/>
<circle cx="73" cy="172" r="2.5" fill="white" fill-opacity="0.5"/>
<circle cx="560" cy="8" r="2.5" fill="white" fill-opacity="0.5"/>
<circle cx="576" cy="8" r="2.5" fill="white" fill-opacity="0.5"/>
<circle cx="592" cy="8" r="2.5" fill="white" fill-opacity="0.5"/>
<circle cx="560" cy="24" r="2.5" fill="white" fill-opacity="0.5"/>
<circle cx="576" cy="24" r="2.5" fill="white" fill-opacity="0.5"/>
<circle cx="592" cy="24" r="2.5" fill="white" fill-opacity="0.5"/>
<circle cx="560" cy="40" r="2.5" fill="white" fill-opacity="0.5"/>
<circle cx="576" cy="40" r="2.5" fill="white" fill-opacity="0.5"/>
<circle cx="592" cy="40" r="2.5" fill="white" fill-opacity="0.5"/>
<circle cx="560" cy="56" r="2.5" fill="white" fill-opacity="0.5"/>
<circle cx="576" cy="56" r="2.5" fill="white" fill-opacity="0.5"/>
<circle cx="592" cy="56" r="2.5" fill="white" fill-opacity="0.5"/>
<circle cx="560" cy="72" r="2.5" fill="white" fill-opacity="0.5"/>
<circle cx="576" cy="72" r="2.5" fill="white" fill-opacity="0.5"/>
<circle cx="592" cy="72" r="2.5" fill="white" fill-opacity="0.5"/>
<path d="M89 219.64L199.227 156" stroke="white" stroke-opacity="0.25" stroke-width="3" stroke-linecap="round"/>
<path d="M70 251.64L180.227 188" stroke="white" stroke-opacity="0.25" stroke-width="3" stroke-linecap="round"/>
<path d="M24 234.64L160 156" stroke="white" stroke-opacity="0.25" stroke-width="3" stroke-linecap="round"/>
<path d="M356 21.6396L466.227 -42" stroke="white" stroke-opacity="0.25" stroke-width="3" stroke-linecap="round"/>
<path d="M319 28.6396L429.227 -35" stroke="white" stroke-opacity="0.25" stroke-width="3" stroke-linecap="round"/>
</g>
<defs>
<linearGradient id="paint0_linear_1_160" x1="300" y1="100" x2="0" y2="100" gradientUnits="userSpaceOnUse">
<stop stop-color="#005DBA"/>
<stop offset="0.7" stop-color="#4953A3"/>
</linearGradient>
<linearGradient id="paint1_linear_1_160" x1="300" y1="100" x2="0" y2="100" gradientUnits="userSpaceOnUse">
<stop stop-color="#005DBA"/>
<stop offset="0.7" stop-color="#4953A3"/>
</linearGradient>
<linearGradient id="paint2_linear_1_160" x1="589.305" y1="200.143" x2="804.886" y2="200.143" gradientUnits="userSpaceOnUse">
<stop stop-opacity="0.5"/>
<stop offset="1" stop-color="white"/>
</linearGradient>
<clipPath id="clip0_1_160">
<rect width="600" height="200" fill="white"/>
</clipPath>
</defs>
</svg>
