<?xml version="1.0" encoding="utf-8"?>
<!-- Generator: Adobe Illustrator 17.0.0, SVG Export Plug-In . SVG Version: 6.00 Build 0)  -->
<!DOCTYPE svg PUBLIC "-//W3C//DTD SVG 1.1//EN" "http://www.w3.org/Graphics/SVG/1.1/DTD/svg11.dtd">
<svg version="1.1" xmlns="http://www.w3.org/2000/svg" xmlns:xlink="http://www.w3.org/1999/xlink" x="0px" y="0px" width="2000px"
	 height="1600px" viewBox="0 0 2000 1600" enable-background="new 0 0 2000 1600" xml:space="preserve">
<g id="bg">
	<rect x="-28.5" y="-23.5" fill="#092C4E" stroke="#000000" stroke-miterlimit="10" width="2063" height="1659"/>
</g>
<g id="wavefronts">
	<circle opacity="0.02" fill="#FFFFFF" cx="1722.726" cy="264.481" r="1319.301"/>
	<circle opacity="0.02" fill="#FFFFFF" cx="1722.726" cy="264.481" r="1013.581"/>
	<circle opacity="0.02" fill="#FFFFFF" cx="1724.726" cy="264.481" r="748.042"/>
	<circle opacity="0.02" fill="#FFFFFF" cx="1722.726" cy="264.481" r="541.9"/>
	<circle opacity="0.02" fill="#FFFFFF" cx="1722.726" cy="264.481" r="376.916"/>
	<circle opacity="0.02" fill="#FFFFFF" cx="1722.726" cy="264.481" r="237.508"/>
</g>
<g id="wavefronts_copy">
	
		<circle opacity="0.08" fill="none" stroke="#FFFFFF" stroke-width="7" stroke-miterlimit="10" cx="1722.726" cy="264.481" r="1319.301"/>
	
		<circle opacity="0.08" fill="none" stroke="#FFFFFF" stroke-width="7" stroke-miterlimit="10" cx="1722.726" cy="264.481" r="1013.581"/>
	
		<circle opacity="0.08" fill="none" stroke="#FFFFFF" stroke-width="7" stroke-miterlimit="10" cx="1722.726" cy="264.481" r="748.042"/>
	
		<circle opacity="0.08" fill="none" stroke="#FFFFFF" stroke-width="7" stroke-miterlimit="10" cx="1722.726" cy="264.481" r="541.9"/>
	
		<circle opacity="0.08" fill="none" stroke="#FFFFFF" stroke-width="7" stroke-miterlimit="10" cx="1722.726" cy="264.481" r="376.916"/>
	
		<circle opacity="0.08" fill="none" stroke="#FFFFFF" stroke-width="7" stroke-miterlimit="10" cx="1722.726" cy="264.481" r="237.508"/>
</g>
<g id="dome">
	<circle fill="#E17822" stroke="#000000" stroke-miterlimit="10" cx="1722.726" cy="264.481" r="118.542"/>
	<defs>
		<filter id="Adobe_OpacityMaskFilter" filterUnits="userSpaceOnUse" x="1586.549" y="126" width="276.236" height="240.347">
			<feColorMatrix  type="matrix" values="1 0 0 0 0  0 1 0 0 0  0 0 1 0 0  0 0 0 1 0"/>
		</filter>
	</defs>
	<mask maskUnits="userSpaceOnUse" x="1586.549" y="126" width="276.236" height="240.347" id="tracing_2_">
		<g filter="url(#Adobe_OpacityMaskFilter)">
			
				<linearGradient id="SVGID_1_" gradientUnits="userSpaceOnUse" x1="1634.5" y1="232.5" x2="1824.5" y2="232.5" gradientTransform="matrix(0 1 -1 0 1957 -1489)">
				<stop  offset="0" style="stop-color:#FFFFFF"/>
				<stop  offset="1" style="stop-color:#000000"/>
			</linearGradient>
			<rect x="1600.5" y="145.5" fill="url(#SVGID_1_)" stroke="#000000" stroke-miterlimit="10" width="248" height="190"/>
		</g>
	</mask>
	<g id="tracing_1_" opacity="0.7" mask="url(#tracing_2_)">
		<g>
			<defs>
				<rect id="SVGID_2_" x="1586.549" y="126" width="276.236" height="240.347"/>
			</defs>
			<clipPath id="SVGID_3_">
				<use xlink:href="#SVGID_2_"  overflow="visible"/>
			</clipPath>
			<g clip-path="url(#SVGID_3_)">
				<defs>
					<rect id="SVGID_4_" x="1586.549" y="126" width="276.236" height="240.347"/>
				</defs>
				<clipPath id="SVGID_5_">
					<use xlink:href="#SVGID_4_"  overflow="visible"/>
				</clipPath>
				<g clip-path="url(#SVGID_5_)">
					<defs>
						<rect id="SVGID_6_" x="1586.549" y="126" width="276.236" height="240.347"/>
					</defs>
					<clipPath id="SVGID_7_">
						<use xlink:href="#SVGID_6_"  overflow="visible"/>
					</clipPath>
				</g>
				<g clip-path="url(#SVGID_5_)">
					<defs>
						<rect id="SVGID_8_" x="1586.549" y="126" width="276.236" height="240.347"/>
					</defs>
					<clipPath id="SVGID_9_">
						<use xlink:href="#SVGID_8_"  overflow="visible"/>
					</clipPath>
					<g opacity="0.53" clip-path="url(#SVGID_9_)">
						<g>
							<defs>
								<rect id="SVGID_10_" x="1605.341" y="145.888" width="235.453" height="177.393"/>
							</defs>
							<clipPath id="SVGID_11_">
								<use xlink:href="#SVGID_10_"  overflow="visible"/>
							</clipPath>
							<path clip-path="url(#SVGID_11_)" fill="none" stroke="#FFFFFF" stroke-miterlimit="10" d="M1823.63,322.729
								c10.213-17.334,16.077-37.54,16.077-59.113c0-64.419-52.221-116.64-116.639-116.64c-26.089,0-50.177,8.566-69.607,23.037
								c-28.545,21.261-47.032,55.272-47.032,93.603c0,19.757,4.92,38.367,13.591,54.676"/>
							<path clip-path="url(#SVGID_11_)" fill="none" stroke="#FFFFFF" stroke-miterlimit="10" d="M1648.879,181.094
								c-20.233,24.597-21.159,25.523-21.159,25.523l8.067,14.547l24.068-14.547l7.273-25.126L1648.879,181.094z"/>
							<polygon clip-path="url(#SVGID_11_)" fill="none" stroke="#FFFFFF" stroke-miterlimit="10" points="1702.306,224.867 
								1710.373,250.522 1772.659,248.935 1774.644,220.767 1750.839,199.74 1724.259,206.485 							"/>
							<path clip-path="url(#SVGID_11_)" fill="none" stroke="#FFFFFF" stroke-miterlimit="10" d="M1635.787,221.164l-7.538,28.565
								l5.95,23.803l20.631,4.365c0,0,18.779-53.295,23.01-57.924c-6.877-5.157-18.116-12.828-18.116-12.828"/>
							<polyline clip-path="url(#SVGID_11_)" fill="none" stroke="#FFFFFF" stroke-miterlimit="10" points="1667.129,181.491 
								1692.916,169.589 1723.332,207.013 							"/>
							<polyline clip-path="url(#SVGID_11_)" fill="none" stroke="#FFFFFF" stroke-miterlimit="10" points="1654.83,277.897 
								1678.503,293.37 1705.216,279.087 1710.373,250.523 							"/>
							
								<line clip-path="url(#SVGID_11_)" fill="none" stroke="#FFFFFF" stroke-miterlimit="10" x1="1677.841" y1="219.974" x2="1702.306" y2="224.867"/>
							<polyline clip-path="url(#SVGID_11_)" fill="none" stroke="#FFFFFF" stroke-miterlimit="10" points="1705.216,279.087 
								1730.209,301.172 1758.774,293.37 1778.081,275.78 1772.66,248.936 							"/>
							
								<line clip-path="url(#SVGID_11_)" fill="none" stroke="#FFFFFF" stroke-miterlimit="10" x1="1606.693" y1="258.855" x2="1628.117" y2="250.522"/>
							<polyline clip-path="url(#SVGID_11_)" fill="none" stroke="#FFFFFF" stroke-miterlimit="10" points="1634.2,273.532 
								1626.662,294.559 1615.29,307.255 							"/>
							
								<line clip-path="url(#SVGID_11_)" fill="none" stroke="#FFFFFF" stroke-miterlimit="10" x1="1626.662" y1="294.559" x2="1642.664" y2="315.322"/>
							
								<line clip-path="url(#SVGID_11_)" fill="none" stroke="#FFFFFF" stroke-miterlimit="10" x1="1678.502" y1="293.369" x2="1682.998" y2="312.941"/>
							
								<line clip-path="url(#SVGID_11_)" fill="none" stroke="#FFFFFF" stroke-miterlimit="10" x1="1729.813" y1="301.171" x2="1724.457" y2="312.214"/>
							
								<line clip-path="url(#SVGID_11_)" fill="none" stroke="#FFFFFF" stroke-miterlimit="10" x1="1627.72" y1="206.617" x2="1617.141" y2="214.817"/>
							
								<line clip-path="url(#SVGID_11_)" fill="none" stroke="#FFFFFF" stroke-miterlimit="10" x1="1648.879" y1="181.094" x2="1651.921" y2="171.044"/>
							<polyline clip-path="url(#SVGID_11_)" fill="none" stroke="#FFFFFF" stroke-miterlimit="10" points="1692.916,169.589 
								1713.547,157.819 1738.805,162.977 1758.377,179.507 1750.839,199.741 							"/>
							<polyline clip-path="url(#SVGID_11_)" fill="none" stroke="#FFFFFF" stroke-miterlimit="10" points="1676.518,156.497 
								1710.769,150.282 1715.134,146.975 							"/>
							<path clip-path="url(#SVGID_11_)" fill="none" stroke="#FFFFFF" stroke-miterlimit="10" d="M1738.806,162.977
								c0-0.925,18.779-8.596,27.903-7.67"/>
							<polyline clip-path="url(#SVGID_11_)" fill="none" stroke="#FFFFFF" stroke-miterlimit="10" points="1758.377,179.507 
								1787.339,186.252 1796.066,211.246 1774.644,220.767 							"/>
							<path clip-path="url(#SVGID_11_)" fill="none" stroke="#FFFFFF" stroke-miterlimit="10" d="M1787.338,186.251
								c0,0,5.291-5.951,7.405-7.802c2.646,0,35.178,34.912,36.766,42.317"/>
							<polyline clip-path="url(#SVGID_11_)" fill="none" stroke="#FFFFFF" stroke-miterlimit="10" points="1832.963,224.734 
								1829.789,237.826 1816.697,229.893 1796.066,211.246 							"/>
							<polyline clip-path="url(#SVGID_11_)" fill="none" stroke="#FFFFFF" stroke-miterlimit="10" points="1778.875,275.516 
								1799.24,283.055 1812.993,301.437 1806.183,319.356 							"/>
							<path clip-path="url(#SVGID_11_)" fill="none" stroke="#FFFFFF" stroke-miterlimit="10" d="M1799.241,283.055
								c2.645-4.1,19.307-43.508,17.456-53.162"/>
							<polyline clip-path="url(#SVGID_11_)" fill="none" stroke="#FFFFFF" stroke-miterlimit="10" points="1829.789,237.826 
								1835.74,264.012 1829.789,291.386 1812.994,301.437 							"/>
							
								<line clip-path="url(#SVGID_11_)" fill="none" stroke="#FFFFFF" stroke-miterlimit="10" x1="1713.547" y1="157.82" x2="1710.769" y2="150.282"/>
							
								<line clip-path="url(#SVGID_11_)" fill="none" stroke="#FFFFFF" stroke-miterlimit="10" x1="1792.893" y1="170.383" x2="1794.744" y2="178.449"/>
							
								<line clip-path="url(#SVGID_11_)" fill="none" stroke="#FFFFFF" stroke-miterlimit="10" x1="1836.004" y1="264.938" x2="1839.707" y2="266.391"/>
							
								<line clip-path="url(#SVGID_11_)" fill="none" stroke="#FFFFFF" stroke-miterlimit="10" x1="1829.657" y1="292.046" x2="1829.789" y2="310.033"/>
							
								<line clip-path="url(#SVGID_11_)" fill="none" stroke="#FFFFFF" stroke-miterlimit="10" x1="1758.774" y1="293.369" x2="1767.899" y2="314.594"/>
						</g>
					</g>
				</g>
			</g>
		</g>
	</g>
</g>
<g id="snowflakes_and_hail">
	<g opacity="0.08">
		<g>
			<defs>
				
					<rect id="SVGID_12_" x="266.765" y="40.219" transform="matrix(-0.9659 0.2588 -0.2588 -0.9659 794.1794 234.8875)" width="229.726" height="259.005"/>
			</defs>
			<clipPath id="SVGID_13_">
				<use xlink:href="#SVGID_12_"  overflow="visible"/>
			</clipPath>
			<path clip-path="url(#SVGID_13_)" fill="#FFFFFF" d="M469.938,208.207l-1.787-6.67l9.992,2.76l2.434-9.312l-9.874-2.694
				l5.491-5.396l-6.855-6.823l-9.36,9.354l-8.538-2.243l14.819-14.85l-6.853-6.824l-18.69,18.809l-6.72-1.827l5.395-5.37
				l-6.76-6.849l-9.266,9.329l-9.75-2.624l-5.337-19.916l6.833-6.765l12.023,3.223l2.434-9.312l-6.699-1.731l4.91-4.944l26.012,7.03
				l2.43-9.311l-20.593-5.56l6.323-6.423l12.022,3.219l2.457-9.216l-6.626-1.853l7.295-7.287l-6.736-6.752l-7.227,7.166
				l-1.988-7.418l-9.289,2.489l3.424,12.779l-6.251,6.308l-5.414-20.206l-9.287,2.488l6.849,25.56l-4.91,4.937l-1.964-7.329
				l-9.285,2.488l3.398,12.683l-6.022,6.049l-21.348-5.759l-2.089-7.797l8.8-8.805L381,120.165l-4.909,4.939l-1.787-6.668
				l19.014-19.096l-6.733-6.751l-15.15,15.137l-2.342-8.739l8.709-8.781l-6.762-6.848l-4.817,4.919l-2.694-10.053l-9.285,2.488
				l2.644,9.868l-7.363-1.958l-2.547,9.247l12.806,3.517l2.29,8.545l-20.167-5.476l-2.525,9.336l25.562,6.849l1.812,6.764
				l-7.265-1.975l-2.552,9.239l12.687,3.446l2.24,8.36l-15.54,15.545l-7.905-2.107l-3.247-12.12l-9.285,2.488l1.811,6.757
				l-6.627-1.845l-6.974-26.027l-9.287,2.488l5.539,20.674l-8.757-2.287l-3.223-12.028l-9.287,2.488l1.788,6.674l-9.987-2.759
				l-2.432,9.311l9.868,2.689l-5.394,5.376l6.762,6.848l9.353-9.359l8.546,2.247l-14.732,14.818l6.764,6.847l18.688-18.799
				l6.72,1.82l-5.394,5.376l6.855,6.823l9.26-9.334l9.874,2.694l5.286,19.729l-6.972,7.003l-12.047-3.315l-2.434,9.312l6.697,1.724
				l-4.91,4.944l-26.009-7.03l-2.434,9.312l20.689,5.536l-6.415,6.455l-11.932-3.25l-2.549,9.238l6.629,1.854l-7.297,7.288
				l6.737,6.757l7.319-7.198l1.988,7.421l9.196-2.464l-3.423-12.774l6.346-6.331l5.412,20.199l9.191-2.463l-6.847-25.553l4.91-4.946
				l1.964,7.329l9.285-2.488l-3.398-12.683l8.312-8.371l18.2,4.888l2.947,10.997l-8.8,8.798l6.853,6.824l4.816-4.912l1.787,6.67
				l-19.012,19.094l6.83,6.727l15.051-15.113l2.342,8.741l-8.705,8.777l6.76,6.849l4.814-4.918l2.694,10.055l9.287-2.488
				l-2.669-9.959l7.386,2.05l2.551-9.241l-12.782-3.428l-2.316-8.643l20.263,5.45l2.43-9.311l-25.562-6.847l-1.813-6.768
				l7.361,1.959l2.456-9.222l-12.686-3.444l-3.021-11.273l13.384-13.454l10.843,2.935l3.247,12.12l9.285-2.488l-1.813-6.766
				l6.72,1.82l6.975,26.03l9.194-2.463l-5.539-20.674l8.757,2.284l3.224,12.03L469.938,208.207z M389.053,191.111L389.053,191.111
				l-18.199-4.891l-4.908-18.318l13.289-13.431l18.32,4.961l4.908,18.318L389.053,191.111z"/>
		</g>
	</g>
	<g opacity="0.08">
		<g>
			<defs>
				
					<rect id="SVGID_14_" x="270.281" y="331.702" transform="matrix(-0.5 0.866 -0.866 -0.5 921.4578 339.7122)" width="184.764" height="208.312"/>
			</defs>
			<clipPath id="SVGID_15_">
				<use xlink:href="#SVGID_14_"  overflow="visible"/>
			</clipPath>
			<path clip-path="url(#SVGID_15_)" fill="#FFFFFF" d="M434.772,407.522l-4.81-2.777l7.252-4.113l-3.912-6.68l-7.147,4.083
				l0.054-6.191l-7.779,0.018l-0.003,10.642l-6.131,3.58l-0.018-16.873l-7.778,0.017l0.068,21.326l-4.861,2.782l0.014-6.122
				l-7.739-0.051l0.036,10.575l-7.038,4.052L370.62,413.5l0.039-7.733l8.671-5.005l-3.912-6.68l-4.794,2.825l-0.019-5.604
				l18.791-10.795l-3.913-6.677l-14.873,8.55l-0.057-7.249l8.668-5.006l-3.843-6.639l-4.822,2.715l0.004-8.293l-7.671-0.009
				l-0.034,8.186l-5.349-3.088l-3.867,6.698l9.215,5.32l0.032,7.143l-14.57-8.412l-3.866,6.697l18.431,10.641l0.015,5.6
				l-5.285-3.051l-3.866,6.695l9.146,5.28l0.015,6.865l-15.416,8.866l-5.622-3.246l-0.003-10.012l-7.74-0.049l0.017,5.601
				l-4.808-2.776l-0.047-21.674l-7.669-0.01l-0.007,17.225l-6.302-3.638l-0.041-9.946l-7.74-0.049l0.058,5.537l-7.249-4.185
				l-3.866,6.695l7.116,4.108l-5.301,3.074l3.81,6.707l9.283-5.283l6.162,3.558l-14.583,8.355l3.874,6.746l18.433-10.642
				l4.877,2.816l-5.255,3.009l3.803,6.705l9.175-5.255l6.029,3.481l0.003,17.678l-5.694,3.297l-8.739-5.046l-3.866,6.695
				l4.872,2.813l-4.818,2.719l-18.768-10.836l-3.866,6.697l14.908,8.607l-6.281,3.68l-8.673-5.008l-3.866,6.697l4.813,2.779
				l-7.249,4.11l3.913,6.679l7.141-4.083l-0.01,6.125l7.74,0.049l-0.003-10.642l6.138-3.582l0.049,16.805l7.741,0.047l-0.063-21.319
				l4.857-2.787l-0.01,6.125l7.779-0.018l-0.042-10.575l7.147-4.083l14.227,8.214l0.017,7.948l-8.737,4.967l3.912,6.68l4.789-2.828
				l0.019,5.604l-18.79,10.794l3.912,6.68l14.915-8.618l0.022,7.319l-8.634,4.938l3.804,6.704l4.824-2.716l-0.005,8.294l7.674,0.011
				l0.069-8.256l5.351,3.089l3.828-6.631l-9.212-5.318l0.008-7.209l14.566,8.409l3.827-6.628l-18.426-10.638l-0.021-5.605
				l5.285,3.051l3.866-6.695l-9.146-5.28l-0.033-9.488l13.131-7.571l7.93,4.578l-0.001,10.008l7.778-0.017l-0.054-5.532l4.81,2.777
				l0.046,21.671l7.71-0.058l-0.035-17.155l6.303,3.639l0.041,9.942l7.739,0.051l-0.059-5.535l7.251,4.186l3.866-6.697l-7.182-4.146
				l5.366-3.034l-3.805-6.706l-9.219,5.32l-6.233-3.598l14.623-8.424l-3.913-6.677l-18.431,10.643l-4.88-2.818l5.3-3.073
				l-3.848-6.641l-9.173,5.256l-8.129-4.693l-0.04-15.263l7.836-4.497l8.739,5.046l3.866-6.695l-4.879-2.817l4.857-2.787
				l18.77,10.837l3.828-6.629l-14.908-8.607l6.279-3.681l8.675,5.009L434.772,407.522z M379.05,443.8L379.05,443.8l-13.131,7.568
				l-13.209-7.626l-0.08-15.196l13.24-7.597l13.209,7.626L379.05,443.8z"/>
		</g>
	</g>
	<g opacity="0.08">
		<g>
			<defs>
				
					<rect id="SVGID_16_" x="475.368" y="244.196" transform="matrix(-0.866 0.5 -0.5 -0.866 1201.5154 344.9732)" width="158.344" height="178.526"/>
			</defs>
			<clipPath id="SVGID_17_">
				<use xlink:href="#SVGID_16_"  overflow="visible"/>
			</clipPath>
			<path clip-path="url(#SVGID_17_)" fill="#FFFFFF" d="M620.202,343.328l-2.38-4.122l7.145,0.055l-0.041-6.634l-7.054-0.032
				l2.693-4.572l-5.781-3.32l-4.563,7.897l-6.085,0.03l7.217-12.531l-5.78-3.32l-9.088,15.857l-4.8-0.018l2.634-4.538l-5.722-3.354
				l-4.505,7.864l-6.96-0.008l-7.106-12.308l3.343-5.723l8.58,0.001l-0.041-6.634l-4.769,0.043l2.387-4.167l18.572,0.04
				l-0.043-6.633l-14.703-0.028l3.064-5.404l8.578-0.002l-0.008-6.574l-4.742-0.051l3.557-6.153l-5.689-3.294l-3.533,6.061
				l-2.647-4.584l-5.741,3.314l4.559,7.897l-3.037,5.315l-7.209-12.487l-5.739,3.314l9.12,15.796l-2.388,4.163l-2.615-4.529
				l-5.738,3.313l4.525,7.838l-2.931,5.101l-15.241-0.026l-2.782-4.818l4.288-7.432l-5.724-3.353l-2.387,4.164l-2.379-4.121
				l9.252-16.106l-5.687-3.293l-7.386,12.781l-3.118-5.401l4.232-7.4l-5.724-3.353l-2.329,4.134l-3.587-6.213l-5.738,3.313
				l3.521,6.098l-5.252,0.01l-0.046,6.611l9.153,0.057l3.049,5.281l-14.404-0.048l-0.016,6.667l18.241,0l2.413,4.18l-5.19-0.019
				l-0.051,6.606l9.061,0.031l2.983,5.167l-7.573,13.122l-5.639,0.007l-4.324-7.49l-5.738,3.313l2.411,4.176l-4.741-0.046
				l-9.286-16.085l-5.739,3.314l7.376,12.776l-6.238,0.04l-4.292-7.433l-5.739,3.314l2.381,4.125l-7.141-0.055l0.042,6.633
				l7.049,0.03l-2.632,4.542l5.724,3.353l4.558-7.9l6.091-0.028l-7.165,12.494l5.725,3.352l9.088-15.85l4.799,0.013l-2.632,4.542
				l5.781,3.32l4.5-7.866l7.054,0.032l7.039,12.193l-3.393,5.906l-8.612-0.058l0.041,6.634l4.766-0.047l-2.387,4.167l-18.571-0.041
				l0.041,6.634l14.762-0.005l-3.12,5.442l-8.524-0.035l-0.049,6.605l4.744,0.052l-3.558,6.154l5.691,3.297l3.589-6.098l2.648,4.586
				l5.683-3.281l-4.558-7.894l3.095-5.347l7.207,12.483l5.68-3.279l-9.117-15.792l2.386-4.169l2.615,4.529l5.738-3.313l-4.525-7.838
				l4.041-7.056l12.99,0.008l3.924,6.796l-4.289,7.427l5.78,3.32l2.33-4.129l2.38,4.122l-9.252,16.104l5.747,3.261l7.325-12.747
				l3.119,5.402l-4.23,7.397l5.722,3.354l2.328-4.133l3.588,6.214l5.739-3.314l-3.553-6.155l5.283,0.047l0.05-6.608l-9.122-0.002
				l-3.084-5.341l14.463,0.014l-0.043-6.633l-18.24,0.001l-2.415-4.182l5.25-0.009l-0.01-6.578l-9.061-0.03l-4.022-6.967
				l6.51-11.345l7.743,0.02l4.324,7.49l5.738-3.313l-2.414-4.181l4.799,0.013l9.287,16.086l5.681-3.28l-7.376-12.776l6.238-0.041
				l4.292,7.435L620.202,343.328z M563.3,346.375L563.3,346.375l-12.989-0.01l-6.536-11.32l6.452-11.313l13.082,0.035l6.536,11.32
				L563.3,346.375z"/>
		</g>
	</g>
	<circle opacity="0.08" fill="#FFFFFF" cx="525.629" cy="60.285" r="45.285"/>
	<circle opacity="0.08" fill="#FFFFFF" cx="252.273" cy="320.072" r="26.003"/>
	<g id="raindrops" display="none">
		<path display="inline" opacity="0.1" fill="#FFFFFF" d="M641.992,94.467c0,0-48.01,62.945-48.01,94.736
			c0,30.622,11.737,57.293,48.011,57.293c35.207,0,48.007-20.271,48.007-56.544c0-35.207-48.008-90.499-48.008-97.619"/>
		<path display="inline" opacity="0.1" fill="#FFFFFF" d="M480.334,593.385c0,0-30.668,40.207-30.668,60.514
			c0,19.56,7.497,36.597,30.668,36.597c22.489,0,30.666-12.948,30.666-36.118c0-22.489-30.666-57.807-30.666-62.356"/>
	</g>
	<g id="better_raindrops">
		<g opacity="0.08">
			<path id="path412_1_" fill="#FFFFFF" d="M291.161,633.459v6.588c-0.439,1.218-0.06,2.915-0.599,4.192
				c-2.475,21.56-20.921,41.144-42.322,44.917c-2.176,0.858-4.751,0.839-6.987,1.198h-8.185c-2.236-0.359-4.811-0.339-6.987-1.198
				c-23.077-3.973-41.872-26.211-42.921-49.309v-6.787c0.731-4.512,1.661-9.203,3.444-13.515c1.805-3.474,3.663-6.927,5.789-10.181
				l6.787-9.183c15.182-18.047,28.477-37.431,38.479-58.552l2.755,5.839c8.265,20.133,21.301,37.96,35.534,54.709
				c1.537,2.256,3.194,4.452,4.991,6.588c2.675,4.112,5.29,8.265,7.386,12.776C289.764,625.354,290.662,629.466,291.161,633.459z"/>
		</g>
		<g opacity="0.08">
			<path id="path412_2_" fill="#FFFFFF" d="M192,117.699v4.575c-0.305,0.846-0.042,2.024-0.416,2.911
				c-1.719,14.972-14.529,28.572-29.39,31.192c-1.511,0.596-3.299,0.582-4.852,0.832h-5.684c-1.553-0.25-3.341-0.236-4.852-0.832
				c-16.026-2.759-29.078-18.202-29.806-34.242v-4.713c0.508-3.133,1.154-6.391,2.391-9.385c1.253-2.412,2.544-4.811,4.02-7.07
				l4.713-6.377c10.543-12.532,19.776-25.994,26.721-40.661l1.913,4.055c5.739,13.981,14.792,26.361,24.677,37.992
				c1.067,1.567,2.218,3.091,3.466,4.575c1.858,2.856,3.674,5.739,5.129,8.872C191.03,112.071,191.653,114.927,192,117.699z"/>
		</g>
		<g opacity="0.08">
			<path id="path412_3_" fill="#FFFFFF" d="M555.345,539.759v4.575c-0.305,0.846-0.042,2.024-0.416,2.911
				c-1.719,14.972-14.529,28.572-29.39,31.192c-1.511,0.596-3.299,0.582-4.852,0.832h-5.684c-1.553-0.25-3.341-0.236-4.852-0.832
				c-16.026-2.759-29.078-18.202-29.806-34.242v-4.713c0.508-3.133,1.154-6.391,2.391-9.385c1.253-2.412,2.544-4.811,4.02-7.07
				l4.714-6.377c10.543-12.532,19.776-25.993,26.721-40.661l1.913,4.055c5.739,13.981,14.792,26.361,24.677,37.992
				c1.067,1.567,2.218,3.091,3.466,4.575c1.858,2.856,3.674,5.739,5.129,8.872C554.374,534.131,554.998,536.987,555.345,539.759z"/>
		</g>
	</g>
</g>
</svg>
