<svg width="600" height="200" viewBox="0 0 600 200" fill="none" xmlns="http://www.w3.org/2000/svg">
<g clip-path="url(#clip0_37_2)">
<rect width="600" height="200" fill="#21689B"/>
<rect x="316" y="229.741" width="458.465" height="202.285" rx="101.142" transform="rotate(-43.0117 316 229.741)" fill="#F8E5BF" fill-opacity="0.11"/>
<rect x="356" y="264.741" width="458.465" height="202.285" rx="101.142" transform="rotate(-43.0117 356 264.741)" fill="#F8E5BF" fill-opacity="0.11"/>
<rect x="181" y="133" width="486" height="203" rx="101.5" fill="#F8E5BF" fill-opacity="0.11"/>
<rect x="181" y="176" width="486" height="203" rx="101.5" fill="#F8E5BF" fill-opacity="0.11"/>
<path d="M350.095 -30.8361C332.373 -48.4547 311.279 -62.376 288.018 -71.8051C264.756 -81.2342 239.783 -85.9864 214.523 -85.7904C189.264 -85.5945 164.212 -80.4541 140.8 -70.663C117.388 -60.8718 96.0731 -46.6215 78.0724 -28.7257C60.0718 -10.8299 45.7381 10.3609 35.8895 33.6368C26.041 56.9127 20.8706 81.8179 20.6734 106.93C20.4763 132.043 25.2564 156.871 34.7407 179.997C44.225 203.123 58.2279 224.094 75.9497 241.712L213.022 105.438L350.095 -30.8361Z" fill="#78BDE7" fill-opacity="0.11"/>
<path d="M285.103 33.8619C275.898 24.7103 264.983 17.4375 252.982 12.4588C240.981 7.48008 228.128 4.89293 215.158 4.84506C202.188 4.7972 189.355 7.28956 177.39 12.1799C165.426 17.0701 154.565 24.2626 145.428 33.3465C136.291 42.4304 129.056 53.228 124.138 65.1226C119.219 77.0172 116.712 89.776 116.76 102.671C116.808 115.565 119.41 128.343 124.418 140.274C129.426 152.205 136.741 163.056 145.947 172.208L215.525 103.035L285.103 33.8619Z" fill="#78BDE7" fill-opacity="0.11"/>
<rect x="202.583" y="115.918" width="35.8291" height="163.455" transform="rotate(-45 202.583 115.918)" fill="#78BDE7" fill-opacity="0.11"/>
<rect x="202.552" y="115.887" width="35.8291" height="120.898" transform="rotate(-45 202.552 115.887)" fill="#78BDE7" fill-opacity="0.11"/>
<g opacity="0.33">
<path d="M215.152 128.653L227.903 115.902L240.653 103.152L355.5 217.998L329.998 243.5L215.152 128.653ZM291.657 26.4683L342.66 -24.535C272.218 -95.3334 158.085 -95.3334 88.0001 -24.8917C157.728 -48.075 235.838 -29.35 291.657 26.4683ZM87.1084 -24C16.6667 46.085 16.6667 160.218 87.4651 230.66L138.468 179.657C82.6501 123.838 63.9251 45.7283 87.1084 -24ZM87.4651 -24.7134L87.2867 -24.535C80.5101 29.5 108.152 98.1583 163.97 154.333L266.333 51.97C210.337 -3.84835 141.5 -31.49 87.4651 -24.7134Z" fill="#78BDE7"/>
</g>
</g>
<defs>
<clipPath id="clip0_37_2">
<rect width="600" height="200" fill="white"/>
</clipPath>
</defs>
</svg>
