<svg width="600" height="200" viewBox="0 0 600 200" fill="none" xmlns="http://www.w3.org/2000/svg">
<g clip-path="url(#clip0_1_2)">
<rect width="600" height="200" fill="white"/>
<rect width="300" height="200" fill="url(#paint0_linear_1_2)"/>
<rect width="300" height="200" transform="matrix(-1 0 0 1 600 0)" fill="url(#paint1_linear_1_2)"/>
<rect x="302.167" y="-186.835" width="203.053" height="461.578" transform="rotate(60 302.167 -186.835)" fill="url(#paint2_linear_1_2)" fill-opacity="0.1"/>
<circle cx="-6" cy="208" r="170" fill="white" fill-opacity="0.05"/>
<circle cx="543.5" cy="56.5" r="93.5" fill="white" fill-opacity="0.05"/>
<circle cx="10" cy="110" r="2.5" fill="white" fill-opacity="0.5"/>
<circle cx="26" cy="110" r="2.5" fill="white" fill-opacity="0.5"/>
<circle cx="10" cy="126" r="2.5" fill="white" fill-opacity="0.5"/>
<circle cx="26" cy="126" r="2.5" fill="white" fill-opacity="0.5"/>
<circle cx="10" cy="142" r="2.5" fill="white" fill-opacity="0.5"/>
<circle cx="26" cy="142" r="2.5" fill="white" fill-opacity="0.5"/>
<circle cx="10" cy="158" r="2.5" fill="white" fill-opacity="0.5"/>
<circle cx="26" cy="158" r="2.5" fill="white" fill-opacity="0.5"/>
<circle cx="10" cy="174" r="2.5" fill="white" fill-opacity="0.5"/>
<circle cx="26" cy="174" r="2.5" fill="white" fill-opacity="0.5"/>
<circle cx="10" cy="190" r="2.5" fill="white" fill-opacity="0.5"/>
<circle cx="26" cy="190" r="2.5" fill="white" fill-opacity="0.5"/>
<circle cx="510" cy="6" r="2.5" fill="white" fill-opacity="0.5"/>
<circle cx="526" cy="6" r="2.5" fill="white" fill-opacity="0.5"/>
<circle cx="542" cy="6" r="2.5" fill="white" fill-opacity="0.5"/>
<circle cx="558" cy="6" r="2.5" fill="white" fill-opacity="0.5"/>
<circle cx="574" cy="6" r="2.5" fill="white" fill-opacity="0.5"/>
<circle cx="590" cy="6" r="2.5" fill="white" fill-opacity="0.5"/>
<circle cx="510" cy="22" r="2.5" fill="white" fill-opacity="0.5"/>
<circle cx="526" cy="22" r="2.5" fill="white" fill-opacity="0.5"/>
<circle cx="542" cy="22" r="2.5" fill="white" fill-opacity="0.5"/>
<circle cx="558" cy="22" r="2.5" fill="white" fill-opacity="0.5"/>
<circle cx="574" cy="22" r="2.5" fill="white" fill-opacity="0.5"/>
<circle cx="590" cy="22" r="2.5" fill="white" fill-opacity="0.5"/>
<circle cx="510" cy="38" r="2.5" fill="white" fill-opacity="0.5"/>
<circle cx="526" cy="38" r="2.5" fill="white" fill-opacity="0.5"/>
<circle cx="542" cy="38" r="2.5" fill="white" fill-opacity="0.5"/>
<circle cx="558" cy="38" r="2.5" fill="white" fill-opacity="0.5"/>
<circle cx="574" cy="38" r="2.5" fill="white" fill-opacity="0.5"/>
<circle cx="590" cy="38" r="2.5" fill="white" fill-opacity="0.5"/>
<circle cx="510" cy="54" r="2.5" fill="white" fill-opacity="0.5"/>
<circle cx="526" cy="54" r="2.5" fill="white" fill-opacity="0.5"/>
<circle cx="542" cy="54" r="2.5" fill="white" fill-opacity="0.5"/>
<circle cx="558" cy="54" r="2.5" fill="white" fill-opacity="0.5"/>
<circle cx="574" cy="54" r="2.5" fill="white" fill-opacity="0.5"/>
<circle cx="590" cy="54" r="2.5" fill="white" fill-opacity="0.5"/>
<circle cx="510" cy="70" r="2.5" fill="white" fill-opacity="0.5"/>
<circle cx="526" cy="70" r="2.5" fill="white" fill-opacity="0.5"/>
<circle cx="542" cy="70" r="2.5" fill="white" fill-opacity="0.5"/>
<circle cx="558" cy="70" r="2.5" fill="white" fill-opacity="0.5"/>
<circle cx="574" cy="70" r="2.5" fill="white" fill-opacity="0.5"/>
<circle cx="590" cy="70" r="2.5" fill="white" fill-opacity="0.5"/>
<path d="M264 211.64L374.227 148" stroke="white" stroke-opacity="0.25" stroke-width="3" stroke-linecap="round"/>
<path d="M245 243.64L355.227 180" stroke="white" stroke-opacity="0.25" stroke-width="3" stroke-linecap="round"/>
<path d="M199 226.64L309.227 163" stroke="white" stroke-opacity="0.25" stroke-width="3" stroke-linecap="round"/>
<path d="M144 17.6396L254.227 -46" stroke="white" stroke-opacity="0.25" stroke-width="3" stroke-linecap="round"/>
<path d="M107 24.6396L217.227 -39" stroke="white" stroke-opacity="0.25" stroke-width="3" stroke-linecap="round"/>
</g>
<defs>
<linearGradient id="paint0_linear_1_2" x1="0" y1="100" x2="300" y2="100" gradientUnits="userSpaceOnUse">
<stop stop-color="#005DBA"/>
<stop offset="0.7" stop-color="#4953A3"/>
</linearGradient>
<linearGradient id="paint1_linear_1_2" x1="0" y1="100" x2="300" y2="100" gradientUnits="userSpaceOnUse">
<stop stop-color="#005DBA"/>
<stop offset="0.7" stop-color="#4953A3"/>
</linearGradient>
<linearGradient id="paint2_linear_1_2" x1="302.167" y1="43.9545" x2="505.22" y2="43.9545" gradientUnits="userSpaceOnUse">
<stop stop-opacity="0.8"/>
<stop offset="1" stop-color="white" stop-opacity="0.8"/>
</linearGradient>
<clipPath id="clip0_1_2">
<rect width="600" height="200" fill="white"/>
</clipPath>
</defs>
</svg>
