<svg width="1024" height="1024" viewBox="0 0 1024 1024" fill="none" xmlns="http://www.w3.org/2000/svg">
<g clip-path="url(#clip0_15_71)">
<path fill-rule="evenodd" clip-rule="evenodd" d="M63.5081 497.551L291.374 892.226H425.79V786.295C393.301 781.012 362.826 769.687 334.364 752.321C293.458 726.668 260.871 691.308 236.604 646.241C213.031 600.481 201.244 548.828 201.244 491.281C201.244 433.734 213.031 382.774 236.604 338.401C260.871 294.028 293.458 259.707 334.364 235.441C362.884 218.329 393.359 207.083 425.79 201.702V102.875L291.374 102.875L63.5081 497.551ZM425.79 316.329C420.9 318.584 416.078 321.088 411.324 323.841C384.978 338.401 363.484 360.241 346.844 389.361C330.898 417.788 322.924 451.761 322.924 491.281C322.924 530.801 330.898 565.467 346.844 595.281C363.484 625.094 384.978 647.974 411.324 663.921C416.103 666.616 420.925 669.074 425.79 671.293V316.329ZM425.79 47.875H480.79V892.226V947.226H425.79H259.62L-0.000488281 497.551L259.62 47.875L425.79 47.875Z" fill="url(#paint0_linear_15_71)"/>
<mask id="path-2-inside-1_15_71" fill="white">
<path fill-rule="evenodd" clip-rule="evenodd" d="M542.943 947.642H764.113L1023.73 497.966L764.113 48.2907L542.943 48.2907V947.642ZM542.945 678.187C553.748 674.57 564.24 669.814 574.422 663.92C600.768 648.666 621.915 626.48 637.861 597.36C654.502 567.546 662.822 532.88 662.822 493.36C662.822 453.84 654.502 419.52 637.861 390.4C621.915 361.28 600.768 339.093 574.422 323.84C564.24 317.945 553.748 313.19 542.945 309.573V208.915C556.647 213.092 569.566 218.466 581.702 225.04C615.675 242.373 642.715 264.213 662.822 290.56V207.36H782.422V780.4H662.822V695.12C642.715 722.16 615.328 744.693 580.661 762.72C568.67 768.956 556.098 774.113 542.945 778.191V678.187Z"/>
</mask>
<path fill-rule="evenodd" clip-rule="evenodd" d="M542.943 947.642H764.113L1023.73 497.966L764.113 48.2907L542.943 48.2907V947.642ZM542.945 678.187C553.748 674.57 564.24 669.814 574.422 663.92C600.768 648.666 621.915 626.48 637.861 597.36C654.502 567.546 662.822 532.88 662.822 493.36C662.822 453.84 654.502 419.52 637.861 390.4C621.915 361.28 600.768 339.093 574.422 323.84C564.24 317.945 553.748 313.19 542.945 309.573V208.915C556.647 213.092 569.566 218.466 581.702 225.04C615.675 242.373 642.715 264.213 662.822 290.56V207.36H782.422V780.4H662.822V695.12C642.715 722.16 615.328 744.693 580.661 762.72C568.67 768.956 556.098 774.113 542.945 778.191V678.187Z" fill="url(#paint1_linear_15_71)"/>
<path d="M764.113 947.642V987.642H787.207L798.754 967.642L764.113 947.642ZM542.943 947.642H502.943V987.642H542.943V947.642ZM1023.73 497.966L1058.37 517.966L1069.92 497.966L1058.37 477.966L1023.73 497.966ZM764.113 48.2907L798.754 28.2907L787.207 8.29073L764.113 8.29073L764.113 48.2907ZM542.943 48.2907L542.943 8.29074L502.943 8.29074V48.2907H542.943ZM574.422 663.92L594.463 698.537L594.463 698.537L574.422 663.92ZM542.945 678.187L530.246 640.256L502.945 649.396V678.187H542.945ZM637.861 597.36L602.934 577.865L602.855 578.006L602.778 578.147L637.861 597.36ZM637.861 390.4L602.778 409.612L602.952 409.93L603.132 410.245L637.861 390.4ZM574.422 323.84L554.38 358.457L554.38 358.457L574.422 323.84ZM542.945 309.573H502.945V338.364L530.246 347.504L542.945 309.573ZM542.945 208.915L554.606 170.653L502.945 154.907V208.915H542.945ZM581.702 225.04L562.65 260.211L563.084 260.446L563.523 260.67L581.702 225.04ZM662.822 290.56L631.023 314.827L702.822 408.907V290.56H662.822ZM662.822 207.36V167.36H622.822V207.36H662.822ZM782.422 207.36H822.422V167.36H782.422V207.36ZM782.422 780.4V820.4H822.422V780.4H782.422ZM662.822 780.4H622.822V820.4H662.822V780.4ZM662.822 695.12H702.822V574.292L630.723 671.252L662.822 695.12ZM580.661 762.72L562.207 727.231L562.207 727.231L580.661 762.72ZM542.945 778.191H502.945V832.474L554.792 816.397L542.945 778.191ZM764.113 907.642H542.943V987.642H764.113V907.642ZM989.093 477.966L729.472 927.642L798.754 967.642L1058.37 517.966L989.093 477.966ZM729.472 68.2907L989.093 517.966L1058.37 477.966L798.754 28.2907L729.472 68.2907ZM542.943 88.2907L764.113 88.2907L764.113 8.29073L542.943 8.29074L542.943 88.2907ZM582.943 947.642V48.2907H502.943V947.642H582.943ZM554.38 629.303C546.452 633.893 538.414 637.521 530.246 640.256L555.643 716.118C569.081 711.619 582.028 705.736 594.463 698.537L554.38 629.303ZM602.778 578.147C590.014 601.455 573.831 618.041 554.38 629.303L594.463 698.537C627.705 679.291 653.816 651.505 672.945 616.572L602.778 578.147ZM622.822 493.36C622.822 527.14 615.756 554.891 602.934 577.865L672.789 616.854C693.247 580.202 702.822 538.62 702.822 493.36H622.822ZM603.132 410.245C615.747 432.323 622.822 459.552 622.822 493.36H702.822C702.822 448.127 693.256 406.717 672.591 370.554L603.132 410.245ZM554.38 358.457C573.831 369.718 590.014 386.305 602.778 409.612L672.945 371.187C653.816 336.255 627.705 308.468 594.463 289.223L554.38 358.457ZM530.246 347.504C538.414 350.238 546.452 353.867 554.38 358.457L594.463 289.223C582.028 282.023 569.081 276.141 555.643 271.642L530.246 347.504ZM502.945 208.915V309.573H582.945V208.915H502.945ZM600.753 189.868C586.176 181.973 570.772 175.58 554.606 170.653L531.283 247.177C542.522 250.603 552.956 254.96 562.65 260.211L600.753 189.868ZM694.62 266.293C670.37 234.518 638.383 209.054 599.88 189.409L563.523 260.67C592.967 275.693 615.059 293.908 631.023 314.827L694.62 266.293ZM622.822 207.36V290.56H702.822V207.36H622.822ZM782.422 167.36H662.822V247.36H782.422V167.36ZM822.422 780.4V207.36H742.422V780.4H822.422ZM662.822 820.4H782.422V740.4H662.822V820.4ZM622.822 695.12V780.4H702.822V695.12H622.822ZM599.116 798.209C638.296 777.835 670.669 751.602 694.92 718.988L630.723 671.252C614.761 692.718 592.361 711.552 562.207 727.231L599.116 798.209ZM554.792 816.397C570.181 811.625 584.967 805.566 599.116 798.208L562.207 727.231C552.372 732.345 542.015 736.601 531.097 739.986L554.792 816.397ZM502.945 678.187V778.191H582.945V678.187H502.945Z" fill="url(#paint2_linear_15_71)" mask="url(#path-2-inside-1_15_71)"/>
</g>
<defs>
<linearGradient id="paint0_linear_15_71" x1="240.395" y1="47.875" x2="240.395" y2="947.226" gradientUnits="userSpaceOnUse">
<stop stop-color="#00FFE0"/>
<stop offset="1" stop-color="#33B5E5"/>
</linearGradient>
<linearGradient id="paint1_linear_15_71" x1="504.543" y1="55.3417" x2="504.543" y2="945.491" gradientUnits="userSpaceOnUse">
<stop stop-color="#00FFE0"/>
<stop offset="1" stop-color="#33B5E5"/>
</linearGradient>
<linearGradient id="paint2_linear_15_71" x1="504.543" y1="47.3416" x2="504.543" y2="949.224" gradientUnits="userSpaceOnUse">
<stop stop-color="#00FFE0"/>
<stop offset="1" stop-color="#33B5E5"/>
</linearGradient>
<clipPath id="clip0_15_71">
<rect width="1024" height="1024" fill="white"/>
</clipPath>
</defs>
</svg>
