<svg width="1024" height="1024" viewBox="0 0 1024 1024" fill="none" xmlns="http://www.w3.org/2000/svg">
<mask id="path-1-inside-1_17_37" fill="white">
<path fill-rule="evenodd" clip-rule="evenodd" d="M569.97 950.531H770.39L783.248 928.26L702.107 712.44H569.97V950.531ZM569.97 600.84H660.149L569.97 360.983V600.84ZM569.97 76.4396H577.251L857.644 799.404L1024 511.266L770.39 72L569.97 72V76.4396Z"/>
</mask>
<path fill-rule="evenodd" clip-rule="evenodd" d="M569.97 950.531H770.39L783.248 928.26L702.107 712.44H569.97V950.531ZM569.97 600.84H660.149L569.97 360.983V600.84ZM569.97 76.4396H577.251L857.644 799.404L1024 511.266L770.39 72L569.97 72V76.4396Z" fill="url(#paint0_linear_17_37)"/>
<path d="M770.39 950.531V990.531H793.484L805.031 970.531L770.39 950.531ZM569.97 950.531H529.97V990.531H569.97V950.531ZM783.248 928.26L817.889 948.26L827.344 931.883L820.69 914.183L783.248 928.26ZM702.107 712.44L739.548 698.363L729.802 672.44H702.107V712.44ZM569.97 712.44V672.44H529.97V712.44H569.97ZM660.149 600.84V640.84H717.921L697.59 586.763L660.149 600.84ZM569.97 600.84H529.97V640.84H569.97V600.84ZM569.97 360.983L607.411 346.906L529.97 360.983H569.97ZM577.251 76.4396L614.544 61.9758L604.64 36.4396H577.251V76.4396ZM569.97 76.4396H529.97V116.44H569.97V76.4396ZM857.644 799.404L820.35 813.867L850.54 891.708L892.285 819.404L857.644 799.404ZM1024 511.266L1058.64 531.266L1070.19 511.266L1058.64 491.266L1024 511.266ZM770.39 72L805.031 52L793.484 32L770.39 32L770.39 72ZM569.97 72L569.97 32L529.97 32V72H569.97ZM770.39 910.531H569.97V990.531H770.39V910.531ZM748.607 908.26L735.749 930.531L805.031 970.531L817.889 948.26L748.607 908.26ZM664.665 726.516L745.807 942.337L820.69 914.183L739.548 698.363L664.665 726.516ZM569.97 752.44H702.107V672.44H569.97V752.44ZM529.97 712.44V950.531H609.97V712.44H529.97ZM660.149 560.84H569.97V640.84H660.149V560.84ZM532.529 375.059L622.707 614.916L697.59 586.763L607.411 346.906L532.529 375.059ZM529.97 360.983V600.84H609.97V360.983H529.97ZM577.251 36.4396H569.97V116.44H577.251V36.4396ZM894.937 784.94L614.544 61.9758L539.957 90.9034L820.35 813.867L894.937 784.94ZM989.359 491.266L823.003 779.404L892.285 819.404L1058.64 531.266L989.359 491.266ZM735.749 92L989.359 531.266L1058.64 491.266L805.031 52L735.749 92ZM569.97 112L770.39 112L770.39 32L569.97 32L569.97 112ZM529.97 72V76.4396H609.97V72H529.97Z" fill="url(#paint1_linear_17_37)" mask="url(#path-1-inside-1_17_37)"/>
<path fill-rule="evenodd" clip-rule="evenodd" d="M507.45 72.6357H450.14L253.61 72.6358L0 511.901L253.61 951.167H507.172V951.035H507.45V72.6357ZM450.14 896.167V712.44H319.046L263.929 859.04L285.365 896.167H450.14ZM450.14 600.84V363.756L361.004 600.84H450.14ZM190.025 731.035L424.046 127.636L285.364 127.636L63.5085 511.901L190.025 731.035Z" fill="url(#paint2_linear_17_37)"/>
<defs>
<linearGradient id="paint0_linear_17_37" x1="514.744" y1="78.8878" x2="514.744" y2="948.43" gradientUnits="userSpaceOnUse">
<stop stop-color="#00FFE0"/>
<stop offset="1" stop-color="#33B5E5"/>
</linearGradient>
<linearGradient id="paint1_linear_17_37" x1="514.744" y1="71.0729" x2="514.744" y2="952.077" gradientUnits="userSpaceOnUse">
<stop stop-color="#00FFE0"/>
<stop offset="1" stop-color="#33B5E5"/>
</linearGradient>
<linearGradient id="paint2_linear_17_37" x1="253.725" y1="72.6357" x2="253.725" y2="951.167" gradientUnits="userSpaceOnUse">
<stop stop-color="#00FFE0"/>
<stop offset="1" stop-color="#33B5E5"/>
</linearGradient>
</defs>
</svg>
