<svg width="1024" height="1024" viewBox="0 0 1024 1024" fill="none" xmlns="http://www.w3.org/2000/svg">
<path d="M681 443L561 374L441 443V581L561 650L681 581V443Z" fill="url(#paint0_linear_61_1169)"/>
<path fill-rule="evenodd" clip-rule="evenodd" d="M882 11.6892L788.778 65.511V127.699L690.043 70.6649L517.624 170.211C518.123 184.519 510.904 198.625 497.641 206.282C478.509 217.328 454.046 210.773 443 191.641C431.954 172.509 438.509 148.046 457.641 137C470.012 129.858 484.613 130.074 496.373 136.292L650.053 47.565L567.711 0L124.534 256V361.841H14V662.159H124.534V768L139.466 776.626L196 743.985V640.521L100 574.529V496.738C87.4947 489.975 79 476.744 79 461.529C79 439.438 96.9086 421.529 119 421.529C141.091 421.529 159 439.438 159 461.529C159 475.918 151.402 488.533 140 495.58V551.499L236.002 617.492L236 767H235.922L235.948 767.046L179.401 799.694L317 879.178V802.412C306.156 795.257 299 782.964 299 769C299 746.909 316.909 729 339 729C361.092 729 379 746.909 379 769C379 784.617 370.05 798.144 357 804.731V902.284L567.711 1024L788.778 896.301V948.029L843.292 979.503L885 907.263V816.487C884.924 816.444 884.847 816.4 884.771 816.356L884.641 816.282C865.51 805.236 858.955 780.773 870 761.641C881.046 742.509 905.51 735.954 924.641 747C943.773 758.046 950.328 782.509 939.282 801.641C935.712 807.825 930.741 812.694 925 816.081V918H924.989L877.933 999.503L920.363 1024H1010.89L1010.89 662.159H900.354V361.842H1010.89V293H845.002L844.986 293.028L775.086 252.677L775.091 252.674L734.255 229.097C729.031 231.599 723.179 233 717 233C694.909 233 677 215.091 677 193C677 170.909 694.909 153 717 153C739.091 153 757 170.909 757 193C757 194.002 756.963 194.995 756.891 195.978L855.655 253L1010.89 253L1010.89 63.2872L922 11.9678V92.2692C935.05 98.8564 944 112.383 944 128C944 150.091 926.091 168 904 168C881.909 168 864 150.091 864 128C864 114.036 871.156 101.743 882 94.5881V11.6892ZM727.617 280.083L667.782 314.629L567.189 256.522L465.824 315.075L412 284H297.731C291.144 270.95 277.617 262 262 262C239.909 262 222 279.909 222 302C222 324.091 239.909 342 262 342C275.964 342 288.257 334.844 295.412 324H401.282L425.834 338.175L345.601 384.522V441.096H300.426C293.839 428.046 280.313 419.098 264.696 419.098C242.605 419.098 224.696 437.006 224.696 459.098C224.696 481.189 242.605 499.098 264.696 499.098C278.661 499.098 290.955 491.941 298.11 481.096H345.601V640.521L427 687.542L427 825H427.37L427 825.642L568.868 907.55L568.93 907.444L625.317 874.889C630.648 877.521 636.652 879 643 879C665.091 879 683 861.091 683 839C683 827.482 678.132 817.102 670.342 809.803L670 810V809.487C662.885 802.974 653.406 799 643 799C620.909 799 603 816.909 603 839C603 839.853 603.027 840.7 603.079 841.539L568.807 861.327L467 802.549L467 710.648L567.189 768.521L678 704.512V731.611L742 768.5L789 769V399.4L789.093 399.454L789.033 315.542L727.617 280.083Z" fill="url(#paint1_linear_61_1169)"/>
<defs>
<linearGradient id="paint0_linear_61_1169" x1="512.444" y1="0" x2="512.444" y2="1024" gradientUnits="userSpaceOnUse">
<stop stop-color="#00FFE0"/>
<stop offset="1" stop-color="#33B5E5"/>
</linearGradient>
<linearGradient id="paint1_linear_61_1169" x1="512.444" y1="0" x2="512.444" y2="1024" gradientUnits="userSpaceOnUse">
<stop stop-color="#00FFE0"/>
<stop offset="1" stop-color="#33B5E5"/>
</linearGradient>
</defs>
</svg>
